<svg width="15" height="15" viewBox="0 0 15 15" fill="none" xmlns="http://www.w3.org/2000/svg">
<rect width="15" height="15" rx="10" fill="white"/>
<path fill-rule="evenodd" clip-rule="evenodd" d="M23.0708 22.3417C25.3691 22.3417 53.6925 22.3417 57.0277 22.3417C60.363 22.3417 57.566 14.6706 53.817 11.3263C50.0681 7.98212 46.9256 6 40.123 6C33.3205 6 29.7944 8.40374 26.6352 11.3263C23.4761 14.249 20.7726 22.3417 23.0708 22.3417Z" fill="#0056D6"/>
<path fill-rule="evenodd" clip-rule="evenodd" d="M25.7549 18.8171H54.9747C54.9747 18.8171 53.8162 14.6055 50.9251 12.7694C48.0341 10.9334 45.6107 9.84515 40.3648 9.84515C35.1189 9.84515 32.3997 11.1648 29.9634 12.7694C27.5272 14.374 25.7549 18.8171 25.7549 18.8171Z" fill="white"/>
<path fill-rule="evenodd" clip-rule="evenodd" d="M36.6753 20.7396H41.6656L45.6281 16.2777C45.6281 16.2777 46.6121 14.9217 45.6281 13.9168C44.6441 12.9118 43.2991 13.7532 43.2991 13.7532L36.6753 20.7396Z" fill="#0056D6"/>
<path fill-rule="evenodd" clip-rule="evenodd" d="M41.6925 37.0813C38.4459 37.0813 35.1992 40.2073 35.1992 43.4511C35.1992 46.6948 38.481 49.8983 41.7704 49.8983C45.0598 49.8983 48.1858 46.8136 48.1858 43.4511C48.1858 40.0885 44.9392 37.0813 41.6925 37.0813Z" fill="#FDB323"/>
<path fill-rule="evenodd" clip-rule="evenodd" d="M41.5449 40.606C40.1429 40.606 38.741 41.9345 38.741 43.3131C38.741 44.6918 40.1581 46.0532 41.5785 46.0532C42.9989 46.0532 44.3488 44.7422 44.3488 43.3131C44.3488 41.8841 42.9468 40.606 41.5449 40.606Z" fill="#FCD7A0"/>
<path fill-rule="evenodd" clip-rule="evenodd" d="M49.8839 29.6376C47.65 29.6376 47.65 33.1623 49.8839 33.1623C52.1178 33.1623 57.1729 33.1623 59.4713 33.1623C61.7697 33.1623 61.7697 29.6376 59.4713 29.6376C57.1729 29.6376 52.1178 29.6376 49.8839 29.6376Z" fill="#0156D6"/>
<path fill-rule="evenodd" clip-rule="evenodd" d="M22.7039 29.6376C20.0815 29.6376 20.0815 33.1623 22.7039 33.1623C25.3263 33.1623 30.5193 33.1623 33.1936 33.1623C35.868 33.1623 35.868 29.6376 33.1936 29.6376C30.5193 29.6376 25.3263 29.6376 22.7039 29.6376Z" fill="#0056D6"/>
<path fill-rule="evenodd" clip-rule="evenodd" d="M6.00004 10.9586C6.00004 17.4985 6.00004 22.7603 6.00004 30.0712C6.00004 37.3821 7.03544 42.9331 9.29202 48.78C11.6007 54.7619 15.0718 57.1524 18.5114 59.6743C21.9669 62.2079 35.2906 65.9651 36.7214 69.143C38.1522 72.3209 40.1603 76 41 76C41.862 76 44.4057 72.3888 45.3314 69.143C46.2571 65.8971 57.3983 63.7302 63.2224 59.6743C69.0465 55.6185 71.6062 50.9811 72.766 48.78C74.5797 45.3379 76 42.2861 76 29.928C76 17.57 76 17.57 76 10.9586C76 4.34714 63.9622 4.34714 63.9622 10.9586C63.9622 15.9672 64.4674 15.9672 64.4674 29.928C64.4674 36.2069 64.6252 42.1634 59.0259 48.1827C53.4266 54.202 46.4813 56.0119 41 56.0119C37.5969 56.0119 28.1062 53.4469 23.5148 48.0294C18.9235 42.6119 18.1716 37.7986 18.3372 30.0712C18.4542 24.6086 18.0676 13.0658 18.0676 10.9586C18.0676 4.41865 6.00004 4.41865 6.00004 10.9586Z" fill="#E50000"/>
</svg>
