<svg xmlns="http://www.w3.org/2000/svg" viewBox="0 0 83.39 84.72"><defs><style>.cls-1,.cls-3{fill:#fff;}.cls-2{fill:#365eab;}.cls-2,.cls-3,.cls-4,.cls-5,.cls-6{fill-rule:evenodd;}.cls-4{fill:#fcb320;}.cls-5{fill:#fcd7a0;}.cls-6{fill:#e41e26;}</style></defs><g id="Layer_2" data-name="Layer 2"><g id="Layer_1-2" data-name="Layer 1"><path class="cls-1" d="M10.17,0H73.22A10.25,10.25,0,0,1,83.39,10.33V74.39A10.25,10.25,0,0,1,73.22,84.72h-63A10.25,10.25,0,0,1,0,74.39V10.33A10.25,10.25,0,0,1,10.17,0Z"/><path class="cls-2" d="M23.76,26.43h34c3.34,0,.54-7.67-3.21-11s-6.89-5.33-13.69-5.33a17.78,17.78,0,0,0-13.49,5.33C24.17,18.34,21.47,26.43,23.76,26.43Z"/><path class="cls-3" d="M26.45,22.91H55.67s-1.16-4.21-4.05-6.05-5.32-2.92-10.56-2.92-8,1.32-10.4,2.92S26.45,22.91,26.45,22.91Z"/><path class="cls-2" d="M37.37,24.83h5l4-4.46s1-1.36,0-2.36A1.94,1.94,0,0,0,44,17.84Z"/><path class="cls-4" d="M42.39,41.17a6.88,6.88,0,0,0-6.5,6.37A7,7,0,0,0,42.46,54a6.75,6.75,0,0,0,6.42-6.45A6.78,6.78,0,0,0,42.39,41.17Z"/><path class="cls-5" d="M42.24,44.7a3,3,0,0,0-2.81,2.7,3,3,0,0,0,2.84,2.74,2.72,2.72,0,1,0,0-5.44Z"/><path class="cls-2" d="M50.58,33.73a1.76,1.76,0,0,0,0,3.52h9.59a1.76,1.76,0,0,0,0-3.52Z"/><path class="cls-2" d="M23.4,33.73a1.77,1.77,0,1,0,0,3.52H33.89a1.77,1.77,0,1,0,0-3.52Z"/><path class="cls-6" d="M6.69,15.05V34.16A48.91,48.91,0,0,0,10,52.87c2.3,6,5.78,8.37,9.22,10.9S36,70.06,37.42,73.23s3.43,6.86,4.27,6.86S45.1,76.48,46,73.23s12.06-5.41,17.89-9.46a29.49,29.49,0,0,0,9.54-10.9c1.81-3.44,3.23-6.49,3.23-18.85v-19c0-6.61-12-6.61-12,0,0,5,.5,5,.5,19,0,6.28.16,12.23-5.44,18.25a24.34,24.34,0,0,1-18,7.83c-3.4,0-12.89-2.56-17.48-8s-5.34-10.23-5.18-18c.12-5.46-.27-17-.27-19.11C18.76,8.51,6.69,8.51,6.69,15.05Z"/></g></g></svg>

