<svg width="1024" height="1024" viewBox="0 0 1024 1024" fill="none" xmlns="http://www.w3.org/2000/svg">
<path fill-rule="evenodd" clip-rule="evenodd" d="M246.885 240.688C281.371 240.688 706.381 240.688 756.429 240.688C806.476 240.688 764.505 127.704 708.25 78.4487C651.995 29.1936 604.84 0 502.763 0C400.687 0 347.775 35.4033 300.37 78.4487C252.965 121.494 212.398 240.688 246.885 240.688Z" fill="#0056D6"/>
<path fill-rule="evenodd" clip-rule="evenodd" d="M287.153 188.774H725.615C725.615 188.774 708.231 126.744 664.849 99.7022C621.466 72.6601 585.102 56.6323 506.384 56.6323C427.666 56.6323 386.863 76.0694 350.305 99.7022C313.748 123.335 287.153 188.774 287.153 188.774Z" fill="white"/>
<path fill-rule="evenodd" clip-rule="evenodd" d="M451.023 217.091H525.907L585.366 151.374C585.366 151.374 600.131 131.403 585.366 116.601C570.601 101.8 550.418 114.193 550.418 114.193L451.023 217.091Z" fill="#0056D6"/>
<path fill-rule="evenodd" clip-rule="evenodd" d="M526.315 457.778C477.597 457.778 428.879 503.819 428.879 551.595C428.879 599.371 478.124 646.553 527.484 646.553C576.843 646.553 623.751 601.12 623.751 551.595C623.751 502.07 575.033 457.778 526.315 457.778Z" fill="#FDB323"/>
<path fill-rule="evenodd" clip-rule="evenodd" d="M524.1 509.691C503.063 509.691 482.025 529.259 482.025 549.563C482.025 569.868 503.29 589.92 524.605 589.92C545.919 589.92 566.175 570.611 566.175 549.563C566.175 528.515 545.137 509.691 524.1 509.691Z" fill="#FCD7A0"/>
<path fill-rule="evenodd" clip-rule="evenodd" d="M649.232 348.144C615.711 348.144 615.711 400.057 649.232 400.057C682.752 400.057 758.607 400.057 793.096 400.057C827.585 400.057 827.585 348.144 793.096 348.144C758.607 348.144 682.752 348.144 649.232 348.144Z" fill="#0156D6"/>
<path fill-rule="evenodd" clip-rule="evenodd" d="M241.376 348.144C202.024 348.144 202.024 400.057 241.376 400.057C280.727 400.057 358.651 400.057 398.781 400.057C438.911 400.057 438.911 348.144 398.781 348.144C358.651 348.144 280.727 348.144 241.376 348.144Z" fill="#0056D6"/>
<path fill-rule="evenodd" clip-rule="evenodd" d="M0.000590016 72.3657C0.000590016 167.81 0.000590016 244.601 0.000590016 351.296C0.000590016 457.992 15.147 539.003 48.1575 624.333C81.9301 711.634 132.708 746.52 183.024 783.325C233.573 820.301 428.479 875.132 449.41 921.511C470.341 967.89 499.716 1021.58 512 1021.58C524.609 1021.58 561.821 968.881 575.362 921.511C588.904 874.141 751.883 842.517 837.082 783.325C922.28 724.134 959.725 656.455 976.691 624.333C1003.22 574.099 1024 529.56 1024 349.207C1024 168.853 1024 168.853 1024 72.3657C1024 -24.1219 847.904 -24.1219 847.904 72.3657C847.904 145.461 855.295 145.461 855.295 349.207C855.295 440.841 857.602 527.77 775.693 615.616C693.784 703.462 592.183 729.876 512 729.876C462.217 729.876 323.382 692.442 256.217 613.379C189.053 534.316 178.053 464.071 180.475 351.296C182.187 271.574 176.532 103.119 176.532 72.3657C176.532 -23.0783 0.000590016 -23.0783 0.000590016 72.3657Z" fill="#E50000"/>
</svg>
